<svg xmlns="http://www.w3.org/2000/svg" viewBox="0 0 1000 990"><mask id="mask"><path d="M1000,0H0V718.31H179.2c38.38,142.38,167.45,247.1,320.8,247.1s282.42-104.72,320.8-247.1H1000Z" fill="white"></path></mask><g mask="url(#mask)"><circle cx="500" cy="630.1601" r="332.441995" fill="#85c5e5"></circle><g transform="scale(1.12)" style="transform-origin: center center;"><path d="M225.35,498c183.42,77.95,371.14,79.06,555.94,0,17.53-7.5,17.43-139.87,0-133.81-180.47,62.83-371.33,63.5-555.94,0C203.39,356.6,205.53,489.53,225.35,498Z" fill="#592d3d" stroke="#592d3d" stroke-miterlimit="10" stroke-width="12px"></path></g><path d="M501.71,209.52c-166.14,0-300.83,134.68-300.83,300.83V673.78c9.48,10.52,25.37,19.57,46,27.19L260.2,661.2l14.46,48.46c152.76,40.64,466.71,25.28,527.88-35.88V510.35C802.54,344.2,667.85,209.52,501.71,209.52Z" fill="#ffffff"></path><path d="M242.87,699.45c1.32.51,2.65,1,4,1.52L260.2,661.2l14.46,48.46c45.22,12,104.55,19.15,167.28,21.63l27.28-26.22L235.81,529.43S229.67,630.88,242.87,699.45Z" fill="#E2E2E2"></path><path d="M617.2,552.78l25.31,170.76c34.8-4.34,66.62-10.27,93.11-17.73h0s33.09-36.89,29.52-176.38S617.2,552.78,617.2,552.78Z" fill="#E2E2E2"></path><path d="M501.71,209.52c-166.14,0-300.83,134.68-300.83,300.83V673.78c9.48,10.52,25.37,19.57,46,27.19L260.2,661.2l14.46,48.46c152.76,40.64,466.71,25.28,527.88-35.88V510.35C802.54,344.2,667.85,209.52,501.71,209.52Z" fill="none" stroke="#592d3d" stroke-miterlimit="10" stroke-width="12px"></path><path d="M610,758.72c90.76,0,72,114.24,72.87,241.28H610Z" fill="#fdd2b2"></path><path d="M632.74,831.87,610,870l11.38,130h31.76C653.91,819.73,632.74,831.87,632.74,831.87Z" fill="#f3ab98"></path><path d="M233.25,500c0-147.32,119.43-266.75,266.75-266.75S766.75,352.68,766.75,500A266.22,266.22,0,0,1,668.1,707.12q-8.21,6.68-16.94,12.69C591,758,515,758,446.39,751.89c-6.66-1-13.3-2.26-19.89-3.71-26.33-5.8-51.82-14.75-75.37-27.8Q342.4,715,334.2,708.76a199.59,199.59,0,0,1-15.8-13.38q-7.14-6.63-13.79-13.78A265.86,265.86,0,0,1,233.25,500Z" fill="#fdd2b2"></path><path d="M269.61,634.48c.7,1.2,1.39,2.4,2.11,3.58.43.72.88,1.42,1.33,2.14.66,1.07,1.32,2.14,2,3.19.48.76,1,1.5,1.46,2.24.66,1,1.32,2,2,3,.51.76,1,1.52,1.56,2.28.66,1,1.32,1.92,2,2.88.54.77,1.1,1.53,1.65,2.3s1.34,1.85,2,2.77,1.15,1.53,1.73,2.29,1.37,1.8,2.07,2.7,1.19,1.51,1.79,2.26,1.41,1.76,2.12,2.63,1.23,1.49,1.85,2.23,1.44,1.72,2.17,2.57,1.27,1.47,1.91,2.2l2.22,2.5c.65.73,1.31,1.44,2,2.16.86.94,1.73,1.87,2.6,2.79l1.21,1.28c1.29,1.34,2.59,2.68,3.91,4l.26.27c1.29,1.28,2.6,2.55,3.91,3.81l1.58,1.5c.95.89,1.9,1.78,2.86,2.66l1.16,1.06c1,.94,2.09,1.86,3.14,2.78q4.9,4.27,10,8.19,8.19,6.24,16.93,11.62c23.55,13,49,22,75.37,27.8,6.59,1.45,13.23,2.7,19.89,3.71,42.1,3.75,87,5.18,129.28-3.08C508.45,729,185.59,612.74,388.8,257.48h0c-2.72,1.25-5.4,2.54-8.06,3.88l-.59.29c-1.22.61-2.44,1.24-3.65,1.88l-1,.53c-3.76,2-7.48,4.07-11.13,6.23l-.9.53c-1.16.69-2.31,1.39-3.46,2.1l-.87.54q-5.36,3.35-10.55,6.93l-1.08.75c-1.09.76-2.16,1.52-3.23,2.29l-.66.47q-3.27,2.39-6.46,4.84l-.62.48c-1,.78-2,1.58-3,2.39l-1.17.94c-1,.81-2,1.62-3,2.45l0,0c-2.11,1.75-4.19,3.55-6.24,5.37l-1.14,1-2.69,2.45L318,305q-4.28,4-8.37,8.17l-1.38,1.41c-.79.82-1.58,1.64-2.36,2.47-.46.49-.92,1-1.37,1.48q-2.06,2.2-4.06,4.46c-.45.51-.91,1-1.36,1.54-.71.81-1.41,1.63-2.11,2.45l-1.51,1.79c-.68.81-1.36,1.62-2,2.44-.54.66-1.08,1.33-1.61,2-1.07,1.33-2.12,2.66-3.16,4-.54.7-1.08,1.4-1.61,2.11s-1.2,1.59-1.79,2.4-1.07,1.45-1.59,2.18-1.13,1.55-1.68,2.33q-1.42,2-2.8,4.05c-.5.73-1,1.48-1.49,2.22s-1.1,1.66-1.64,2.5l-1.49,2.31-1.68,2.71c-.43.69-.86,1.38-1.28,2.07-.89,1.46-1.75,2.93-2.61,4.4l-1.22,2.16c-.54.95-1.08,1.91-1.61,2.87-.4.73-.8,1.46-1.19,2.19-.64,1.19-1.27,2.39-1.9,3.59l-1.2,2.34c-.64,1.28-1.28,2.55-1.91,3.84-.33.69-.67,1.39-1,2.09-.52,1.09-1,2.19-1.53,3.29-.31.66-.61,1.32-.91,2q-1.11,2.47-2.17,5c-.22.52-.43,1.05-.65,1.57-.53,1.27-1.05,2.54-1.56,3.82-.27.67-.53,1.34-.79,2-.5,1.26-1,2.53-1.45,3.8-.21.55-.42,1.1-.62,1.65q-.94,2.63-1.85,5.26l-.56,1.7q-.66,2-1.29,4l-.6,1.91c-.47,1.54-.93,3.08-1.37,4.63-.1.33-.2.66-.29,1q-.78,2.76-1.5,5.54c-.16.59-.3,1.19-.45,1.78-.35,1.39-.69,2.78-1,4.18l-.42,1.75c-.43,1.9-.85,3.8-1.24,5.71l-.15.77q-.51,2.55-1,5.1c-.11.61-.21,1.21-.32,1.82-.26,1.49-.51,3-.74,4.5-.08.51-.17,1-.24,1.52-.3,1.95-.57,3.91-.83,5.88l-.15,1.3c-.2,1.59-.38,3.19-.55,4.79-.06.6-.13,1.2-.19,1.81-.16,1.68-.31,3.37-.45,5.06,0,.35-.06.69-.08,1q-.22,3-.39,6.05c0,.53,0,1.07-.07,1.6q-.1,2.36-.18,4.71c0,.59,0,1.18,0,1.77,0,2.05-.08,4.11-.08,6.17,0,0,0,.07,0,.1,0,2.22,0,4.42.08,6.62,0,.76.06,1.52.08,2.28.05,1.47.1,2.94.17,4.41,0,.89.11,1.77.16,2.66.08,1.33.15,2.66.25,4,.07,1,.16,1.89.24,2.83.11,1.26.21,2.52.34,3.77.09,1,.21,1.94.31,2.91.14,1.21.27,2.43.42,3.64.12,1,.26,2,.39,2.95.16,1.18.32,2.37.5,3.55.15,1,.31,2,.47,3,.18,1.16.37,2.33.57,3.49.18,1,.36,2,.55,3,.21,1.15.43,2.3.65,3.44s.41,2,.62,3c.24,1.14.48,2.27.74,3.4s.44,2,.68,2.93c.26,1.13.54,2.25.82,3.36s.49,1.95.74,2.91c.3,1.12.6,2.23.91,3.34.26,1,.53,1.92.81,2.87.32,1.11.65,2.21,1,3.31s.58,1.89.88,2.84.7,2.19,1.06,3.28.62,1.87.94,2.8c.38,1.09.76,2.18,1.15,3.27.33.91.65,1.83,1,2.74l1.24,3.27c.35.89.69,1.79,1,2.68.44,1.09.89,2.19,1.34,3.28.36.86.71,1.73,1.08,2.59.47,1.12,1,2.22,1.45,3.33.37.82.73,1.65,1.1,2.47.52,1.16,1.07,2.3,1.6,3.44l1.08,2.3c.61,1.26,1.24,2.5,1.87,3.75.32.63.62,1.27.95,1.9q2.88,5.61,6,11.07C268.88,633.26,269.25,633.87,269.61,634.48Z" fill="#f3ab98"></path><path d="M233.25,500c0-147.32,119.43-266.75,266.75-266.75S766.75,352.68,766.75,500A266.22,266.22,0,0,1,668.1,707.12q-8.21,6.68-16.94,12.69C591,758,515,758,446.39,751.89c-6.66-1-13.3-2.26-19.89-3.71-26.33-5.8-51.82-14.75-75.37-27.8Q342.4,715,334.2,708.76a199.59,199.59,0,0,1-15.8-13.38q-7.14-6.63-13.79-13.78A265.86,265.86,0,0,1,233.25,500Z" fill="none" stroke="#592d3d" stroke-miterlimit="10" stroke-width="12px"></path><path d="M386.12,758.72c-90.77,0-72,114.24-72.87,241.28h72.87Z" fill="#fdd2b2"></path><path d="M367.23,831.87,390,870l-11.39,130H346.88C346.07,819.73,367.23,831.87,367.23,831.87Z" fill="#f3ab98"></path><path d="M619.47,1070H380.53a13.28,13.28,0,0,1-13.27-13.28V772a13.28,13.28,0,0,1,13.27-13.28H613.76c13.09,0,19,7.66,19,19.88v278.08A13.28,13.28,0,0,1,619.47,1070Z" fill="#fdd2b2"></path><path d="M629.05,766.62a19.33,19.33,0,0,1-2.51-4,17.25,17.25,0,0,0-8.28-3.51,28.88,28.88,0,0,0-4.5-.34H380.53A13.28,13.28,0,0,0,367.26,772c29,10.42,83.29,16.24,132.74,16.24C563.06,788.24,604.38,778.89,629.05,766.62Z" fill="#f3ab98"></path><path d="M610,758.72c90.76,0,72,114.24,72.87,241.28H632.74" fill="none" stroke="#592d3d" stroke-linecap="square" stroke-miterlimit="10" stroke-width="12px"></path><path d="M386.12,758.72c-90.77,0-72,114.24-72.87,241.28h50.07" fill="none" stroke="#592d3d" stroke-linecap="square" stroke-miterlimit="10" stroke-width="12px"></path><path d="M380.53,758.82l233.23-.1" fill="none" stroke="#592d3d" stroke-miterlimit="10" stroke-width="12px"></path><path d="M380.53,1070H497.15C388,1070,396.24,838.82,367.26,838.82v217.86A13.28,13.28,0,0,0,380.53,1070Z" fill="#f3ab98"></path><path d="M361.26,860.85c-.19-3.67-.11-7.34.05-11s.47-7.35.86-11c.2-1.84.4-3.67.65-5.51s.49-3.67.85-5.51a44.18,44.18,0,0,1,3.59-11,44.18,44.18,0,0,1,3.59,11c.36,1.84.62,3.67.85,5.51s.45,3.67.65,5.51c.38,3.67.68,7.34.85,11s.25,7.34.06,11Z" fill="#592d3d"></path><path d="M632.74,870v8c.26,34,.26,69,0,102.75,0,2.87,0,5.72,0,8.53v67.41A13.28,13.28,0,0,1,619.47,1070H380.53a13.28,13.28,0,0,1-13.27-13.28V998.52c0-2.51,0-5.07,0-7.65-.25-34.87-.25-69.87,0-105.3V860.85" fill="none" stroke="#592d3d" stroke-miterlimit="10" stroke-width="12px"></path><path d="M626.74,870c-.19-4.17-.1-8.35.06-12.53s.47-8.35.85-12.53c.2-2.09.41-4.18.65-6.27s.49-4.17.85-6.26a55.09,55.09,0,0,1,3.59-12.53,55.09,55.09,0,0,1,3.59,12.53c.36,2.09.62,4.18.85,6.26s.45,4.18.65,6.27c.38,4.18.69,8.35.85,12.53s.25,8.36.06,12.53Z" fill="#592d3d"></path><path d="M570.68,842.45C570.9,833,582.9,829,588.9,835a10.61,10.61,0,1,1-15.16,14.85A10.4,10.4,0,0,1,570.68,842.45Z" fill="#592d3d"></path><path d="M408.11,842.15C407.9,834,416.9,830,422.9,833c8,3,8,14,0,19-4,2-8,0-11.75-2.48A10.39,10.39,0,0,1,408.11,842.15Z" fill="#592d3d"></path><path d="M500,831.77a27.13,27.13,0,0,1,1.5,5.84,42.47,42.47,0,0,1,.49,5.84l.3,11.69c.09,3.89.21,7.79.25,11.69l.17,11.67c.23,15.57.22,31.16.28,46.74s.18,31.16,0,46.74c-.09,7.79-.3,15.58-.53,23.37-.1,3.89-.29,7.79-.67,11.68a92.5,92.5,0,0,1-1.77,11.69,92.5,92.5,0,0,1-1.77-11.69c-.38-3.89-.57-7.79-.67-11.68-.23-7.79-.44-15.58-.53-23.37-.2-15.58,0-31.16,0-46.74s0-31.15.18-46.73l.17-11.7.33-11.68.33-11.68a44.11,44.11,0,0,1,.5-5.84A27.13,27.13,0,0,1,500,831.77Z" fill="#f3ab98"></path><path d="M425.22,883a18.51,18.51,0,0,1,4.67-1.5,29.75,29.75,0,0,1,4.68-.5l9.35-.33,18.7-.41c12.46-.19,24.91-.24,37.38-.27s24.93-.16,37.39,0c6.23.09,12.46.3,18.7.53,3.11.11,6.23.3,9.34.67a61.34,61.34,0,0,1,9.35,1.78,59.17,59.17,0,0,1-9.35,1.77c-3.11.38-6.23.57-9.34.67-6.24.23-12.47.43-18.7.52-12.46.19-24.92,0-37.39,0s-24.93,0-37.4-.15c-6.23-.06-12.46-.26-18.68-.5l-9.35-.34a29.5,29.5,0,0,1-4.67-.5A18.45,18.45,0,0,1,425.22,883Z" fill="#f3ab98"></path><path d="M442.41,914.38a12.51,12.51,0,0,1,3.74-1.11,18.35,18.35,0,0,1,3.62-.15c2.39.1,4.78.16,7.17.21,4.78.11,9.56.15,14.34.17,9.63,0,19.09.08,28.76-.21s19.26-.43,28.88-.39c4.81,0,9.62.13,14.42.24a70.37,70.37,0,0,1,7.23.47,38.17,38.17,0,0,1,7.27,1.53,36.56,36.56,0,0,1-7.16,2,61.08,61.08,0,0,1-7.21.86c-4.82.35-9.64.65-14.45.82-9.64.36-19.27.32-28.88.45-4.81,0-9.61.22-14.48.1s-9.69-.13-14.52-.31-9.68-.58-14.5-1.08c-2.42-.27-4.82-.57-7.23-.9a16.82,16.82,0,0,1-3.57-.84A11.51,11.51,0,0,1,442.41,914.38Z" fill="#f3ab98"></path><path d="M438.93,949.87a13.07,13.07,0,0,1,3.82-1.5,19.13,19.13,0,0,1,3.82-.49l7.63-.32c5.09-.18,10.19-.33,15.28-.41C479.66,947,489.84,947,500,947s20.36-.17,30.54,0c5.09.09,10.18.3,15.27.53a72.73,72.73,0,0,1,7.63.66A41.2,41.2,0,0,1,561.1,950a41.25,41.25,0,0,1-7.63,1.77,70.34,70.34,0,0,1-7.64.67c-5.09.23-10.18.44-15.27.53-10.18.2-20.37.06-30.55,0s-20.36-.06-30.54-.25c-5.09-.1-10.19-.28-15.28-.49l-7.63-.37a19.33,19.33,0,0,1-3.82-.5A12.85,12.85,0,0,1,438.93,949.87Z" fill="#f3ab98"></path><path d="M680.7,905.78c.2-37.1-1.21-70.07-7.74-95.39-10.08-25.35-28.18-40.47-60.12-40.47l22.85,134.47S658.2,914.68,680.7,905.78Z" fill="#f3ab98"></path><path d="M689.3,895.23a20.28,20.28,0,0,1-3.69,2.42" fill="none" stroke="#592d3d" stroke-linecap="square" stroke-miterlimit="10" stroke-width="12px"></path><path d="M329,809.32c-6.82,25.57-8,59.13-7.74,97,19.9,8.55,50.43-2.15,50.43-2.15L389,771.89C358.14,771.89,339.74,785.79,329,809.32Z" fill="#f3ab98"></path><path d="M616.66,758.16l-38.44.1c0,53.72-75.33,111.14-75.33,111.14s-80.8-60.58-80.8-111.14l-38.66-.1a13.28,13.28,0,0,0-13.28,13.27v284.69a13.28,13.28,0,0,0,13.28,13.27H622.36a13.27,13.27,0,0,0,13.27-13.27V778C635.63,765.82,629.75,758.16,616.66,758.16Z" fill="#85c5e5"></path><path d="M612.84,758.16c63.54,0,73.4,56,73.9,133.16-18.59,11.62-48.91,1.32-48.91,1.32Z" fill="#85c5e5"></path><path d="M635.63,831.31,612.84,869.4l11.39,130h11.6V893.78l17.28,2.89C647.49,824.5,635.63,831.31,635.63,831.31Z" fill="#67B7D6"></path><path d="M389,758.16c-61.78,0-75.82,53.79-76.85,127.66,19,19.85,57.95,4.58,57.95,4.58Z" fill="#85c5e5"></path><path d="M370.12,831.31V890.4l-17.31,4.3C358.48,824.63,370.12,831.31,370.12,831.31Z" fill="#67B7D6"></path><path d="M612.84,758.16c67.42,0,78.45,56.28,78.9,133.78-26.2,12.42-53.91.7-53.91.7" fill="none" stroke="#592d3d" stroke-linecap="square" stroke-miterlimit="10" stroke-width="12px"></path><path d="M389,758.16c-66.79,0-80.08,54.69-80.75,130.71,20.59,14.79,61.85,1.53,61.85,1.53" fill="none" stroke="#592d3d" stroke-linecap="square" stroke-miterlimit="10" stroke-width="12px"></path><path d="M383.43,1069.39H500c-109.19,0-100.91-231.14-129.89-231.14v217.87A13.28,13.28,0,0,0,383.43,1069.39Z" fill="#67B7D6"></path><path d="M364.15,860.29c-.19-3.67-.11-7.35.06-11s.47-7.34.85-11c.2-1.83.41-3.67.65-5.51s.49-3.67.85-5.5a44.05,44.05,0,0,1,3.59-11,44.05,44.05,0,0,1,3.59,11c.36,1.83.62,3.67.85,5.5s.45,3.68.65,5.51q.58,5.52.86,11c.16,3.67.24,7.35,0,11Z" fill="#592d3d"></path><path d="M635.63,869.4v8c.26,34,.26,69,0,102.76,0,2.87,0,5.72,0,8.53v67.41a13.27,13.27,0,0,1-13.27,13.27H383.43a13.28,13.28,0,0,1-13.28-13.27V990.3c-.26-34.86-.26-69.86,0-105.3V860.29" fill="none" stroke="#592d3d" stroke-miterlimit="10" stroke-width="12px"></path><path d="M629.63,869.4c-.19-4.18-.1-8.36.06-12.53s.47-8.36.86-12.53c.2-2.09.4-4.18.64-6.27s.49-4.18.86-6.27a54.83,54.83,0,0,1,3.58-12.53,54.37,54.37,0,0,1,3.59,12.53c.36,2.09.63,4.18.85,6.27s.45,4.18.65,6.27c.39,4.17.69,8.35.85,12.53s.26,8.35.06,12.53Z" fill="#592d3d"></path><path d="M383.43,758.26l233.23-.1" fill="none" stroke="#592d3d" stroke-miterlimit="10" stroke-width="12px"></path><path d="M310.72,891.94a24.84,24.84,0,0,0,3.68,2.76" fill="none" stroke="#592d3d" stroke-linecap="square" stroke-miterlimit="10" stroke-width="12px"></path><path d="M677.59,882.13a20.25,20.25,0,0,1-6.75,2.52,34.91,34.91,0,0,1-7.21.64,39.94,39.94,0,0,1-7.17-.78c-1.18-.22-2.34-.57-3.49-.87s-2.28-.78-3.38-1.24c1.21,0,2.39.17,3.56.27l3.52.29c1.17,0,2.33.2,3.5.21s2.33.11,3.49.12c2.32.05,4.64,0,7-.18A50.81,50.81,0,0,0,677.59,882.13Z" fill="#592d3d"></path><path d="M578.22,758.26c0,53.72-75.33,111.14-75.33,111.14s-80.8-60.58-80.8-111.14" fill="none" stroke="#592d3d" stroke-miterlimit="10" stroke-width="12px"></path><g transform="translate(0 30)"><path d="M517.8,866.62l-14.4,24.94L489,866.62H441l62.36,108,62.36-108Z" fill="none" stroke="#fff" stroke-width="16px"></path><path d="M517.8,866.62l-14.4,24.94L489,866.62H441l62.36,108,62.36-108Z" fill="#44b783"></path><path d="M517.8,866.62l-14.4,24.94L489,866.62H466l37.42,64.81,37.42-64.81Z" fill="#364a5e"></path></g><path d="M670.06,788.32q3.3-3.32,6.5-6.71c45.16-54.71,48.7-112.39,57.87-148.37V619l-2.44.84c.83-1.52,1.65-3,2.44-4.56-.06-.1-3.49,3.38-3.55,3.28A33.65,33.65,0,0,1,725.8,622l-32.55,11.28a220.36,220.36,0,0,1-43.89,3.82c-63-.26-63.24-14.87-113.2-20l-96.49,1.58c-25.69,3.84-37.06,11.81-88,12.85-44.15.9-83.62-10-83.62-10v12.68c14,36.84,4.58,64.43,29,110.49,0-.65,0-1.31-.05-2-4.39-21.71,0-41.57,2.12-49.19.21-1.88.36-2.92.36-2.92v-.07c0-.12,0-.2,0-.2l0,.1c0,.14.11.45.22.9.23-.72.36-1.11.36-1.11s.89,4.91,2.54,12.74c3.93,15.48,11.16,43,19.45,70.08.92,2.43,1.87,4.81,2.84,7.11.07.21.15.44.23.65,27.94,29.88,62.13,55.36,93.14,74.5,3.34,2,6.51,3.87,9.48,5.61a86.4,86.4,0,0,1,2.41-43.06s.07.38.21,1.08c.24-.77.4-1.19.4-1.19s11.43,47.45,34.52,62.83c.57.24,1.15.47,1.73.66l-.44.16.1.06c.58.33,1.18.65,1.77,1a208.45,208.45,0,0,0,21.34,8.53c5.41,1.57,9.84,2.39,12,2.39,4.75,0,32-10.61,48.69-49.07,1.1-3.27,1.63-5.32,1.63-5.32l.28.69c.11-.27.22-.53.32-.8A56,56,0,0,1,560.7,869a526,526,0,0,0,72.06-47.55l0-.11c.27-.64.53-1.29.8-1.94l.06-.13.81-2v0l.84-2.08v0c14.48-35.83,23.58-89,23.58-89,.06-.18.28.09.6.74,0-.55,0-.85,0-.85S675.72,748.49,670.06,788.32Z" fill="#ffffff"></path><path d="M670.06,788.32q3.3-3.32,6.5-6.71c45.16-54.71,48.7-112.39,57.87-148.37V619l-2.44.84c.83-1.52,1.65-3,2.44-4.56-.06-.1-3.49,3.38-3.55,3.28A33.65,33.65,0,0,1,725.8,622l-32.55,11.28a220.36,220.36,0,0,1-43.89,3.82c-63-.26-63.24-14.87-113.2-20l-96.49,1.58c-25.69,3.84-37.06,11.81-88,12.85-44.15.9-83.62-10-83.62-10v12.68c14,36.84,4.58,64.43,29,110.49,0-.65,0-1.31-.05-2-4.39-21.71,0-41.57,2.12-49.19.21-1.88.36-2.92.36-2.92v-.07c0-.12,0-.2,0-.2l0,.1c0,.14.11.45.22.9.23-.72.36-1.11.36-1.11s.89,4.91,2.54,12.74c3.93,15.48,11.16,43,19.45,70.08.92,2.43,1.87,4.81,2.84,7.11.07.21.15.44.23.65,27.94,29.88,62.13,55.36,93.14,74.5,3.34,2,6.51,3.87,9.48,5.61a86.4,86.4,0,0,1,2.41-43.06s.07.38.21,1.08c.24-.77.4-1.19.4-1.19s11.43,47.45,34.52,62.83c.57.24,1.15.47,1.73.66l-.44.16.1.06c.58.33,1.18.65,1.77,1a208.45,208.45,0,0,0,21.34,8.53c5.41,1.57,9.84,2.39,12,2.39,4.75,0,32-10.61,48.69-49.07,1.1-3.27,1.63-5.32,1.63-5.32l.28.69c.11-.27.22-.53.32-.8A56,56,0,0,1,560.7,869a526,526,0,0,0,72.06-47.55l0-.11c.27-.64.53-1.29.8-1.94l.06-.13.81-2v0l.84-2.08v0c14.48-35.83,23.58-89,23.58-89,.06-.18.28.09.6.74,0-.55,0-.85,0-.85S675.72,748.49,670.06,788.32Z" fill="#ffffff"></path><path d="M670.06,788.32q3.3-3.32,6.5-6.71c45.16-54.71,48.7-112.39,57.87-148.37V619l-2.44.84c.83-1.52,1.65-3,2.44-4.56-.06-.1-3.49,3.38-3.55,3.28A33.65,33.65,0,0,1,725.8,622l-32.55,11.28a220.36,220.36,0,0,1-43.89,3.82c-63-.26-78.3-19.69-113.2-20s-76.95-1.23-96.49,1.58-37.06,11.81-88,12.85c-44.15.9-83.62-10-83.62-10v12.68c14,36.84,4.58,64.43,29,110.49,0-.65,0-1.31-.05-2-4.39-21.71,0-41.57,2.12-49.19.21-1.88.36-2.92.36-2.92v-.07c0-.12,0-.2,0-.2l0,.1c0,.14.11.45.22.9.23-.72.36-1.11.36-1.11s.89,4.91,2.54,12.74c3.93,15.48,11.16,43,19.45,70.08.92,2.43,1.87,4.81,2.84,7.11.07.21.15.44.23.65,27.94,29.88,62.13,55.36,93.14,74.5,3.34,2,6.51,3.87,9.48,5.61a86.4,86.4,0,0,1,2.41-43.06s.07.38.21,1.08c.24-.77.4-1.19.4-1.19s11.43,47.45,34.52,62.83c.57.24,1.15.47,1.73.66l-.44.16.1.06c.58.33,1.18.65,1.77,1a208.45,208.45,0,0,0,21.34,8.53c5.41,1.57,9.84,2.39,12,2.39,4.75,0,32-10.61,48.69-49.07,1.1-3.27,1.63-5.32,1.63-5.32l.28.69c.11-.27.22-.53.32-.8A56,56,0,0,1,560.7,869a526,526,0,0,0,72.06-47.55l0-.11c.27-.64.53-1.29.8-1.94l.06-.13.81-2v0l.84-2.08v0c14.48-35.83,23.58-89,23.58-89,.06-.18.28.09.6.74,0-.55,0-.85,0-.85S675.72,748.49,670.06,788.32Z" fill="#ffffff"></path><path d="M343.5,706.91a23.12,23.12,0,0,0,13.79,5.8C343,701.34,337.78,690.32,336,685.36A271.66,271.66,0,0,1,326,630.81a329.37,329.37,0,0,1-57.87-9.33v12.68c14,36.84,4.58,64.43,29,110.49,0-.65,0-1.31-.05-2-4.39-21.71,0-41.57,2.12-49.19.21-1.88.36-2.92.36-2.92v-.07c0-.12,0-.2,0-.2l0,.1c0,.14.11.45.22.9.23-.72.36-1.11.36-1.11s.89,4.91,2.54,12.74c3.93,15.48,11.16,43,19.45,70.08.92,2.43,1.87,4.81,2.84,7.11.07.21.15.44.23.65,27.94,29.88,62.13,55.36,93.14,74.5,3.34,2,6.51,3.87,9.48,5.61a86.4,86.4,0,0,1,2.41-43.06s.07.38.21,1.08c.24-.77.4-1.19.4-1.19s11.43,47.45,34.52,62.83c.57.24,1.15.47,1.73.66l-.44.16.1.06c.58.33,1.18.65,1.77,1a208.45,208.45,0,0,0,21.34,8.53c5.41,1.57,9.84,2.39,12,2.39,3.53,0,19.51-5.88,34.33-24.72C466.94,846.06,380.78,800,343.5,706.91Z" fill="#E2E2E2"></path><path d="M433.87,816.78s9.49,9,29.29,4.09c-1.47,3.55-5.93,5.4-5.93,5.4s6.17,8.13,19.06,7.75c0,0-7.73,4.8-15.53,1.65A169.67,169.67,0,0,0,442.41,834l-13.51-9.38Z" fill="#E2E2E2"></path><path d="M351.7,631.52q-2.64.48-5.28.84c-.89.11-1.77.25-2.65.35l-2.66.24-5.32.38c-1.78.08-3.56.09-5.33.14-3.56.07-7.11-.07-10.67-.2s-7.1-.37-10.64-.71-7.07-.7-10.61-1.1-7.05-1-10.56-1.56a196.89,196.89,0,0,1-21-4.57l-3.85-1.08,2.1-7.57,3.88.94c6.61,1.61,13.47,3.13,20.27,4.49s13.68,2.64,20.57,3.72c3.44.59,6.89,1,10.35,1.56s6.92,1,10.39,1.31C337.67,629.65,344.64,630.36,351.7,631.52Z" fill="#592d3d"></path><path d="M669.31,789.07c10.26-10.26,9.29-9.63,17.79-20.94-1.5-34.48-30-53.71-30-53.71L659,726.08c.84.16,7.91,18.47,7.56,46.08Z" fill="#E2E2E2"></path><path d="M575.36,859.87c-5.72-24.9-22.42-29.15-22.42-29.15l3.21,19.45a96.48,96.48,0,0,1,3.9,19.14c5-2.72,10.16-5.66,15.45-8.78Z" fill="#E2E2E2"></path><path d="M340.09,735.62a90.52,90.52,0,0,0,6.59,20.14A121.79,121.79,0,0,0,357,773.89l3.09,4.18c.53.68,1,1.42,1.56,2.07l1.66,2c1.13,1.31,2.19,2.68,3.35,4l3.56,3.78c.6.62,1.16,1.28,1.77,1.89l1.9,1.78,3.77,3.58c2.58,2.32,5.33,4.45,7.94,6.75l-6.28,3.32-.06-4c.05-1.32.07-2.64.2-4s.23-2.65.46-4c.11-.66.18-1.32.32-2l.43-2a43.84,43.84,0,0,1,2.52-7.67A35,35,0,0,1,385,780c.34-.6.73-1.18,1.13-1.77.21-.29.4-.57.64-.87s.42-.54.78-.95l4.46-5.06.56,6.55c.1,1.09.3,2.4.53,3.61s.51,2.46.84,3.68a48,48,0,0,0,2.51,7.14,36.29,36.29,0,0,0,3.9,6.55,29,29,0,0,0,5.62,5.42,23.79,23.79,0,0,1-7-4.07,31.32,31.32,0,0,1-5.54-6.17,43.85,43.85,0,0,1-4-7.32c-.54-1.28-1-2.58-1.46-3.91a34,34,0,0,1-1.11-4.16l5,1.49c0,.08-.22.35-.34.55s-.26.46-.39.69c-.25.48-.5,1-.73,1.48a33.23,33.23,0,0,0-1.24,3.15,44.39,44.39,0,0,0-1.62,6.69,55.25,55.25,0,0,0-.65,6.94c-.06,1.16,0,2.34,0,3.51l.16,3.53.4,8.64-6.68-5.32c-1.44-1.15-2.87-2.29-4.29-3.46l-2.14-1.75c-.7-.59-1.44-1.14-2.09-1.79l-4-3.83-2-1.91c-.64-.67-1.25-1.36-1.86-2.05l-3.67-4.15c-1.21-1.39-2.26-2.92-3.38-4.39a105.25,105.25,0,0,1-6.17-9.19,91.82,91.82,0,0,1-8.63-20.3C340.61,750.19,339.43,742.84,340.09,735.62Z" fill="#592d3d"></path><path d="M638.78,724.34A5.35,5.35,0,0,1,640,726a16.7,16.7,0,0,1,.84,1.94A33.87,33.87,0,0,1,642,732a58.47,58.47,0,0,1,1.08,8.32,94.26,94.26,0,0,1-.54,16.71,109.35,109.35,0,0,1-9,32.28A90.58,90.58,0,0,1,614.3,817a70.11,70.11,0,0,1-28.51,17,111.55,111.55,0,0,0,23.91-21.31A118.63,118.63,0,0,0,626.25,786a157.47,157.47,0,0,0,10.09-30,151.49,151.49,0,0,0,2.81-15.76c.32-2.65.54-5.32.63-8a33.51,33.51,0,0,0-.08-4,14.64,14.64,0,0,0-.26-2A5.74,5.74,0,0,0,638.78,724.34Z" fill="#ffffff"></path><path d="M262.51,621.57c22.24,43.9,7.22,72.38,35.18,124.3-7-29,2.43-55.68,2.43-55.68S310,744.78,325,780.12c7.28,23.46,69.85,61.4,103.55,81.17a86.33,86.33,0,0,1,2.32-43.58s11.89,49.36,35.91,63.71c13.43,7.58,30.15,11.89,35.13,11.89s34.53-11.58,50.92-54.5a56,56,0,0,1,7.9,30.68c22.18-12,53.39-25.68,72.45-47.65C659.52,787.15,659.52,726,659.52,726S676,748.85,669.93,789.3c61.76-68.3,54.34-143.14,71.42-175.57" fill="none" stroke="#592d3d" stroke-miterlimit="10" stroke-width="12px"></path><path d="M734.38,616.77a3.8,3.8,0,0,0,1.16,1.29,4,4,0,0,0,2.15.7,3.81,3.81,0,0,0,1.68-.34h0l-.09,0-.2.11-.48.24-1,.51-2,1q-2,1-4,2c-2.69,1.32-5.41,2.57-8.13,3.81s-5.5,2.41-8.27,3.57-5.6,2.23-8.47,3.26c-1.44.51-2.89,1-4.39,1.43a39.36,39.36,0,0,1-4.75,1.15c-.47.08-.81.11-1.18.16l-1.12.13c-.74.09-1.48.16-2.23.23-1.49.14-3,.3-4.49.4a85.55,85.55,0,0,1-18.09-.43c5.86-1.58,11.62-2.89,17.37-4.29l8.59-2a35.39,35.39,0,0,0,3.81-1.36c1.31-.52,2.63-1.14,4-1.72,2.65-1.19,5.29-2.47,7.93-3.77s5.29-2.61,7.93-3.93l7.94-4,4-2,2-1,1-.48.53-.25.3-.13.16-.08.05,0a4.11,4.11,0,0,1,5.19,1.57l2.13,3.38-7.06,4.19Z" fill="#592d3d"></path><line x1="375.88" y1="603.9" x2="306.24" y2="534.26" fill="none" stroke="#592d3d" stroke-linecap="round" stroke-miterlimit="10" stroke-width="16px"></line><line x1="306.24" y1="603.9" x2="375.88" y2="534.26" fill="none" stroke="#592d3d" stroke-linecap="round" stroke-miterlimit="10" stroke-width="16px"></line><line x1="695.99" y1="603.9" x2="626.34" y2="534.26" fill="none" stroke="#592d3d" stroke-linecap="round" stroke-miterlimit="10" stroke-width="16px"></line><line x1="626.34" y1="603.9" x2="695.99" y2="534.26" fill="none" stroke="#592d3d" stroke-linecap="round" stroke-miterlimit="10" stroke-width="16px"></line><path d="M443.14,621.86c0-18.9,113.72-16.06,113.72,0a56.86,56.86,0,0,1-113.72,0Z" fill="#592d3d"></path><path d="M443.14,621.86c0-18.9,113.72-16.06,113.72,0a56.86,56.86,0,0,1-113.72,0Z" fill="none" stroke="#592d3d" stroke-miterlimit="10" stroke-width="6px"></path><path d="M532.49,646.6c0-8.06-14.55-14.6-32.49-14.6s-32.49,6.54-32.49,14.6h0v44.34c0,14.41,14.55,26.08,32.49,26.08s32.49-11.67,32.49-26.08V646.61Z" fill="#f28195"></path><path d="M532.49,646.6c0-8.06-14.55-14.6-32.49-14.6s-32.49,6.54-32.49,14.6h0v44.34c0,14.41,14.55,26.08,32.49,26.08s32.49-11.67,32.49-26.08V646.61Z" fill="none" stroke="#592d3d" stroke-miterlimit="10" stroke-width="8px"></path><path d="M479.31,626.6l.91-.21.76-.14c.49-.08,1-.14,1.46-.18a21.42,21.42,0,0,1,2.89-.1,25,25,0,0,1,5.79.81,21.39,21.39,0,0,1,10.34,6.11A20.07,20.07,0,0,1,506.54,643a17.19,17.19,0,0,1-1.37,10.35c-2.08-2.93-3.66-5.55-5.32-7.76a27.26,27.26,0,0,0-2.46-3,14.09,14.09,0,0,0-2.69-2.16,15.31,15.31,0,0,0-6.11-2.08,25.67,25.67,0,0,0-3.43-.22c-.59,0-1.18,0-1.76,0l-.85.06-.4,0c-.09,0-.29,0-.22,0Z" fill="#592d3d"></path><rect x="290.23" y="414.02" width="439.24" height="64.15" fill="#f3ab98"></rect><path d="M710,667.66q-4.71,5.82-9.71,11.37C697.79,681.8,702.87,677.91,710,667.66Zm15-316.55C694.5,296.7,641.5,259.24,580.22,242l-6.35-1.71c-22.7-6.28-46.62-7-71.32-7-26.69,0-52.46,2.74-76.77,10l-4.26,1.27A283.11,283.11,0,0,0,332.67,294q-4.37,3.58-8.57,7.32c-28.34,23.69-50.34,53.69-65.47,87.9q-2.2,4.92-4.16,9.93a212.31,212.31,0,0,0-9.41,30.61C213,556.34,262.89,634,307.17,681.6c4.37,4.7-57.93-101.85-17.42-216,7.73-.29,20.24-.51,36.19-.67l15.5-50.61,17.44,50.38c27.4-.13,59.88-.15,93.88-.12l12.32-52.36L479,464.6c74.37.14,151.44.52,195.28.77l13.2-52.17,15,52.33,8.21.05C760.78,572,728.5,641.13,710,667.66A265.62,265.62,0,0,0,769.3,500C769.3,413.58,725,351.11,725,351.11Z" fill="#ffffff"></path><path d="M710,667.66q-4.71,5.82-9.71,11.37C697.79,681.8,702.87,677.91,710,667.66Zm15-316.55C694.5,296.7,641.5,259.24,580.22,242l-6.35-1.71c-22.7-6.28-46.62-7-71.32-7-26.69,0-52.46,2.74-76.77,10l-4.26,1.27A283.11,283.11,0,0,0,332.67,294q-4.37,3.58-8.57,7.32c-28.34,23.69-50.34,53.69-65.47,87.9q-2.2,4.92-4.16,9.93a212.31,212.31,0,0,0-9.41,30.61C213,556.34,262.89,634,307.17,681.6c4.37,4.7-57.93-101.85-17.42-216,7.73-.29,20.24-.51,36.19-.67l15.5-50.61,17.44,50.38c27.4-.13,59.88-.15,93.88-.12l12.32-52.36L479,464.6c74.37.14,151.44.52,195.28.77l13.2-52.17,15,52.33,8.21.05C760.78,572,728.5,641.13,710,667.66A265.62,265.62,0,0,0,769.3,500C769.3,413.58,725,351.11,725,351.11Z" fill="none" stroke="#592d3d" stroke-miterlimit="10" stroke-width="12px"></path><path d="M584.15,228l-6.47-1.74c-25.21-7-50.93-7.55-75.13-7.55-30.59,0-57.07,3.49-80.91,10.64l-4.26,1.27-.49.15a299.89,299.89,0,0,0-93.42,52c-3,2.46-6,5-8.84,7.55-29.63,24.82-52.93,56.11-69.24,93-1.56,3.49-3,7.05-4.42,10.57-4.18,10.69-21.29,59.77-23.75,70.65l72.53,1c7.73-.29,20.24-.51,36.19-.67l15.5-50.61,17.44,50.38c27.4-.13,59.88-.15,93.88-.12l12.32-52.36L479,464.6c74.37.14,151.44.52,195.28.77l13.2-52.17,15,52.33,8.21.05L783.8,500c0-86.19-41.3-149-46.48-156.6C706,288,651.63,247,584.15,228ZM750.31,547.25c-3.17-25.92-11.17-55.26-26.51-87.84l-3.89-8.27-6.49,0-26.78-93.63L663,450.81c-40.43-.22-107.06-.54-172.86-.69l-25.95-97.57-22.94,97.5c-27.4,0-51.55,0-72.09.09L340.6,367.53l-25.42,83c-11.45.15-20.16.34-26,.56l-9.83.38-3.29,9.26C261.72,501.22,257.92,545,264.76,591c-15.9-40-22.46-91.39-5.65-157.63l.09-.38A197.7,197.7,0,0,1,268,404.47c1.2-3.09,2.51-6.22,3.91-9.35,14.54-32.86,35.24-60.67,61.51-82.63l.33-.29c2.65-2.35,5.39-4.69,8.14-6.95a270.41,270.41,0,0,1,84-46.87l4.05-1.2c21.12-6.34,44.87-9.43,72.6-9.43,22.22,0,45.73.51,67.45,6.52l6.38,1.71c60.24,17,108.53,53.27,136,102.23l.37.66.44.63c.42.59,41.61,59.63,41.61,140.5A252.08,252.08,0,0,1,750.31,547.25Z" fill="#ffffff"></path><path d="M710,667.66q-4.71,5.82-9.71,11.37C697.79,681.8,702.87,677.91,710,667.66ZM307.17,681.6c4.37,4.7-57.93-101.85-17.42-216,7.73-.29,20.24-.51,36.19-.67l15.5-50.61,17.44,50.38c27.4-.13,59.88-.15,93.88-.12l12.32-52.36L479,464.6c74.37.14,151.44.52,195.28.77l13.2-52.17,15,52.33,8.21.05C760.78,572,728.5,641.13,710,667.66" fill="none" stroke="#592d3d" stroke-miterlimit="10" stroke-width="12px"></path><path d="M284.48,462.85c.18-.75.33-1.32.53-1.94s.4-1.2.62-1.78c.46-1.17,1-2.31,1.51-3.42a48.48,48.48,0,0,1,3.85-6.42,37.51,37.51,0,0,1,4.88-5.75,17,17,0,0,1,7-4,31,31,0,0,1-.87,7.68c-.28,1.14-.59,2.25-.93,3.32l-1,3.25q-1,3.23-2,6.39c-.33,1.06-.68,2.09-1,3.13-.17.51-.37,1-.56,1.53s-.39,1-.56,1.4Z" fill="#592d3d"></path><path d="M710.68,459.58a35,35,0,0,1,6.23.06,60.73,60.73,0,0,1,6.24.86c1,.2,2.08.4,3.12.64a25.74,25.74,0,0,1,3.11.86,18.53,18.53,0,0,1,6.24,3.58,18.74,18.74,0,0,1-6.24,3.59,25.68,25.68,0,0,1-3.11.85c-1,.25-2.08.45-3.12.65q-3.12.58-6.24.86a35,35,0,0,1-6.23.05Z" fill="#592d3d"></path><path d="M444.84,452.07a134.88,134.88,0,0,1,1.49-14.25c.72-4.7,1.6-9.37,2.61-14s2.15-9.25,3.44-13.83A132.09,132.09,0,0,1,457,396.4a131.77,131.77,0,0,1-1.5,14.25q-1.08,7.05-2.61,14t-3.44,13.83A137,137,0,0,1,444.84,452.07Z" fill="#ffffff"></path><path d="M668,452.07a134.88,134.88,0,0,1,1.49-14.25q1.09-7.05,2.61-14T675.49,410a132.09,132.09,0,0,1,4.57-13.58,131.76,131.76,0,0,1-1.49,14.25q-1.1,7.05-2.61,14c-1,4.64-2.16,9.25-3.45,13.83A134.48,134.48,0,0,1,668,452.07Z" fill="#ffffff"></path><path d="M237.55,468.26a143,143,0,0,1,11.42-38" fill="#ffffff"></path><path d="M231.6,467.51c.09-1,.18-1.85.32-2.73s.29-1.72.46-2.58c.35-1.7.75-3.38,1.23-5a78.48,78.48,0,0,1,3.47-9.75,66.09,66.09,0,0,1,4.7-9.22,29.18,29.18,0,0,1,7.19-7.91,50.46,50.46,0,0,1-.48,10.43c-.25,1.63-.51,3.25-.83,4.84s-.58,3.19-.83,4.78l-1.63,9.49-.83,4.68c-.12.78-.28,1.56-.42,2.32s-.3,1.57-.44,2.19Z" fill="#592d3d"></path><path d="M769.33,496s-.46-20.78-8.37-47.63" fill="#ffffff"></path><path d="M763.33,496.12l-.24-2.76c-.08-1-.16-1.93-.22-2.89l-.45-5.84-.91-11.8c-.3-3.95-.71-7.91-1-11.93-.08-2-.16-4.06-.1-6.14a47.58,47.58,0,0,1,.5-6.4,42.78,42.78,0,0,1,6.58,10.89,62.13,62.13,0,0,1,2.17,5.84c.67,2,1.24,4,1.81,6a111.89,111.89,0,0,1,2.69,12.17c.33,2.05.63,4.12.81,6.21q.16,1.56.24,3.15c.06,1.07.08,2.07.07,3.28Z" fill="#592d3d"></path><path d="M506.7,235.5a369.62,369.62,0,0,0-42.48,4.93c-3.48.68-7,1.42-10.44,2.06s-6.9,1.61-10.35,2.41l-10.26,2.72c-3.4,1-6.77,2.08-10.15,3.12a314.87,314.87,0,0,0-39.44,15.73,348.17,348.17,0,0,0-37.24,21,183.41,183.41,0,0,1,35.08-25.14A219.23,219.23,0,0,1,421.18,245c3.48-1,6.94-2.09,10.42-3.05s7-1.82,10.55-2.6,7.1-1.4,10.65-2,7.16-1.07,10.74-1.52A190,190,0,0,1,506.7,235.5Z" fill="#ffffff"></path><path d="M600.89,460.57a318.14,318.14,0,0,1,33.51-6.65l-2.66.35c13.18-1.74,26.54-2.25,39.75-.48l-2.66-.36c3.27.46,6.54,1,9.82,1.42l-2.66-.36a221,221,0,0,1,29.48,6.11c5,1.39,11.1-1.73,12.3-7a10.19,10.19,0,0,0-7-12.3,239.21,239.21,0,0,0-34.59-6.78l2.66.36a143,143,0,0,0-33.44-1.95,235.08,235.08,0,0,0-33.09,4.55c-5.62,1.13-11.2,2.43-16.76,3.8-5.08,1.25-8.62,7.26-7,12.3a10.19,10.19,0,0,0,12.3,7Z" fill="#592d3d"></path><path d="M286.14,460.6a202.56,202.56,0,0,1,29.25-6.19l-2.66.36a195.53,195.53,0,0,1,51.38.08l-2.66-.35a218.94,218.94,0,0,1,29.45,6.1c5,1.4,11.1-1.73,12.3-7a10.19,10.19,0,0,0-7-12.3A227.26,227.26,0,0,0,352,433.6a208.27,208.27,0,0,0-71.22,7.71,10.39,10.39,0,0,0-6,4.6,10.2,10.2,0,0,0-1,7.7c1.65,5.11,6.91,8.54,12.3,7Z" fill="#592d3d"></path><g transform="scale(1.12)" style="transform-origin: center center;"><circle cx="491.44" cy="157.14" r="47.48" fill="#D67070"></circle><path d="M491.44,204.62a47.47,47.47,0,0,0,46.46-57.31c-30.78-4.77-62.7-2-93.77,6-.1,1.26-.17,2.53-.17,3.82A47.48,47.48,0,0,0,491.44,204.62Z" fill="#C46565"></path><circle cx="491.44" cy="157.14" r="47.48" fill="none" stroke="#592d3d" stroke-miterlimit="10" stroke-width="12px"></circle><path d="M240.26,423.13a254.67,254.67,0,0,1,6.54-57.5q1.29-5.55,2.81-11c2.9-32.3,20-58.94,42.86-82.73,4.76-3.81,5.71-12.37,10.47-17.13,16.18-14.27,30.45-28.55,48.53-40,74.22-47.58,172.23-73.27,251.21-29.5,16.17,8.56,34.25,13.32,47.57,24.74,25.7,21.88,43.77,47.58,69.47,68.51,22.83,19,26.64,49.48,34.74,76.07q1.53,5.44,2.81,11a254.67,254.67,0,0,1,6.54,57.5Z" fill="#D67070"></path><path d="M246.8,365.63a254.67,254.67,0,0,0-6.54,57.5h83C321.7,342.47,301,275.11,406,193,330.68,221.59,262.05,284.38,246.8,365.63Z" fill="#C46565"></path><path d="M258.18,321.12a109.41,109.41,0,0,0-8.57,33.51q-1.52,5.44-2.81,11a254.67,254.67,0,0,0-6.54,57.5H440.31a827.17,827.17,0,0,1,127.59,0H763.81a254.67,254.67,0,0,0-6.54-57.5q-1.29-5.55-2.81-11c-3.46-11.37-6.15-23.44-9.86-35C582.71,259.73,419,261,258.18,321.12Z" fill="#C46565"></path><path d="M240.26,423.13a254.67,254.67,0,0,1,6.54-57.5q1.29-5.55,2.81-11c2.9-32.3,20-58.94,42.86-82.73,4.76-3.81,5.71-12.37,10.47-17.13,16.18-14.27,30.45-28.55,48.53-40,74.22-47.58,172.23-73.27,251.21-29.5,16.17,8.56,34.25,13.32,47.57,24.74,25.7,21.88,43.77,47.58,69.47,68.51,22.83,19,26.64,49.48,34.74,76.07q1.53,5.44,2.81,11a254.67,254.67,0,0,1,6.54,57.5Z" fill="none" stroke="#592d3d" stroke-miterlimit="10" stroke-width="12px"></path><path d="M225.35,356.43c183.42-78,371.14-79.06,555.94,0,17.53,7.5,17.43,139.87,0,133.81-180.47-62.83-371.33-63.5-555.94,0C203.39,497.79,205.53,364.86,225.35,356.43Z" fill="#D67070"></path><path d="M751.33,443.71a43.58,43.58,0,0,1,1.35,9.9c.09,3.27-.11,6.52-.26,9.78l-.36,4.87c-.16,1.62-.32,3.24-.52,4.85-.4,3.23-.89,6.44-1.59,9.61l-7.87-1.41c.44-3.17,1-6.31,1.64-9.45l1-4.71,1-4.7c.74-3.13,1.37-6.27,2.22-9.4A53.94,53.94,0,0,1,751.33,443.71Z" fill="#592d3d"></path><path d="M749.91,342.47a175.32,175.32,0,0,1,3.63,19c.43,3.19.78,6.39,1.09,9.59s.49,6.42.66,9.63c.26,6.42.37,12.84.06,19.25a114.35,114.35,0,0,1-2.45,19.11c-1-6.39-1.67-12.7-2.32-19s-1.21-12.55-2.05-18.78c-.39-3.12-.83-6.22-1.3-9.32s-1-6.19-1.52-9.27c-1.07-6.17-2.3-12.29-3.59-18.41Z" fill="#592d3d"></path><path d="M668.78,322c7.56,42.87,6.71,89.49,0,138.73" fill="none" stroke="#592d3d" stroke-miterlimit="10" stroke-width="8px"></path><path d="M598.19,307.61c5.15,42.9,4.57,89.55,0,138.83" fill="none" stroke="#592d3d" stroke-miterlimit="10" stroke-width="8px"></path><path d="M533.85,356.47a172.75,172.75,0,0,1,2.37,20.68c.4,6.9.52,13.8.65,20.71l0,10.36c0,3.45,0,6.9-.12,10.35-.15,6.9-.4,13.8-.87,20.69l-8-.4c.22-6.87.57-13.73.94-20.59l1.21-20.57c.46-6.86.82-13.73,1.35-20.6S532.69,363.36,533.85,356.47Z" fill="#592d3d"></path><path d="M535.93,299.88a58.54,58.54,0,0,1,.28,6.35c0,1.06-.05,2.12-.08,3.18L536,312.6c-.17,2.12-.32,4.25-.68,6.38a22.42,22.42,0,0,1-2.08,6.41,23.29,23.29,0,0,1-2.7-6.21c-.57-2.08-.93-4.16-1.31-6.25l-.49-3.12c-.13-1.05-.28-2.09-.39-3.13a55,55,0,0,1-.35-6.29Z" fill="#592d3d"></path><path d="M467.76,299.65c.35,43,.31,89.67,0,139" fill="none" stroke="#592d3d" stroke-miterlimit="10" stroke-width="8px"></path><path d="M403.38,306.18c-2.06,43-1.83,89.73,0,139.11" fill="none" stroke="#592d3d" stroke-miterlimit="10" stroke-width="8px"></path><path d="M333.37,391.65a161.31,161.31,0,0,1,2.71,16.78c.63,5.59,1.09,11.17,1.65,16.75l1.51,16.73c.47,5.57.93,11.15,1.25,16.74l-8,.64c-.58-5.61-.93-11.24-1.18-16.87-.13-2.82-.2-5.64-.28-8.46l-.1-8.46c0-5.64.05-11.29.35-16.93A117.52,117.52,0,0,1,333.37,391.65Z" fill="#592d3d"></path><path d="M340.48,320.18c-.25,3.65-.64,7.28-1.05,10.91l-.66,5.45-.72,5.45c-.54,3.64-.95,7.28-1.6,10.93a67.39,67.39,0,0,1-2.8,10.92,55.71,55.71,0,0,1-2-11.14c-.3-3.72-.32-7.42-.38-11.14l0-5.56c.06-1.86.11-3.71.2-5.56.2-3.71.49-7.41,1-11.09Z" fill="#592d3d"></path><path d="M264.86,340.45c-6.86,43-6.09,89.85,0,139.3" fill="none" stroke="#592d3d" stroke-miterlimit="10" stroke-width="8px"></path><path d="M753.07,434.58a3.75,3.75,0,1,0-3.75-3.75,3.8,3.8,0,0,0,3.75,3.75Z" fill="#592d3d"></path><path d="M758.28,341.38c10,42.84,8.85,89.43,0,138.64" fill="none" stroke="#C46565" stroke-miterlimit="10" stroke-width="8px"></path><path d="M681,320c7.56,42.87,6.71,89.49,0,138.74" fill="none" stroke="#C46565" stroke-miterlimit="10" stroke-width="8px"></path><path d="M610.38,305.45c5.15,42.9,4.57,89.55,0,138.83" fill="none" stroke="#C46565" stroke-miterlimit="10" stroke-width="8px"></path><path d="M544.06,297.82c2.74,42.92,2.44,89.61,0,138.92" fill="none" stroke="#C46565" stroke-miterlimit="10" stroke-width="8px"></path><path d="M479.8,297.16c.34,42.95.31,89.67,0,139" fill="none" stroke="#C46565" stroke-miterlimit="10" stroke-width="8px"></path><path d="M415.34,303.53c-2.06,43-1.83,89.73,0,139.11" fill="none" stroke="#C46565" stroke-miterlimit="10" stroke-width="8px"></path><path d="M348.41,317c-4.46,43-4,89.79,0,139.21" fill="none" stroke="#C46565" stroke-miterlimit="10" stroke-width="8px"></path><path d="M276.74,337.64c-6.86,43-6.09,89.85,0,139.3" fill="none" stroke="#C46565" stroke-miterlimit="10" stroke-width="8px"></path><path d="M225.35,356.43c183.42-78,371.14-79.06,555.94,0,17.53,7.5,17.43,139.87,0,133.81-180.47-62.83-371.33-63.5-555.94,0C203.39,497.79,205.53,364.86,225.35,356.43Z" fill="none" stroke="#592d3d" stroke-miterlimit="10" stroke-width="12px"></path><path d="M426.76,283.72A328.8,328.8,0,0,1,465.37,278c3.25-.28,6.49-.56,9.74-.78l9.75-.56c3.26-.14,6.51-.2,9.77-.3l9.77-.13c13,0,26.05.63,39,1.84a324.4,324.4,0,0,1,38.6,5.8c-13-.29-26-.79-38.88-1.13s-25.84-.49-38.75-.52h-9.68c-3.23,0-6.46.12-9.69.11l-9.68.14c-3.23.11-6.46.16-9.7.2C452.72,283,439.78,283.46,426.76,283.72Z" fill="#592d3d"></path><path d="M347.31,233.83a183.71,183.71,0,0,1,22.38-15.33c7.78-4.62,15.81-8.84,24-12.66,2-1,4.13-1.86,6.2-2.78s4.13-1.86,6.24-2.67c4.22-1.65,8.4-3.38,12.7-4.8a217,217,0,0,1,26.06-7.5c-2.07.91-4.16,1.78-6.25,2.63s-4.19,1.64-6.25,2.56c-4.15,1.74-8.31,3.42-12.43,5.22l-3.09,1.33c-1,.43-2.08.85-3.1,1.32l-6.15,2.73c-2.06.88-4.09,1.83-6.14,2.75s-4.09,1.84-6.1,2.83l-6.1,2.83c-2,1-4,2-6.05,3-4,1.94-8,4-12.05,6C363.19,225.31,355.23,229.48,347.31,233.83Z" fill="#ffffff"></path></g><circle cx="382.91" cy="594.66" r="33.84" fill="#ffffff" opacity="0.2"></circle><path d="M375.87,631l43.31-41.74a147.47,147.47,0,0,0-7.57-12.9l-45.87,44.21C367.64,621.9,373.72,630.08,375.87,631Z" fill="#ffffff" opacity="0.4"></path><circle cx="382.91" cy="594.66" r="33.84" fill="none" stroke="#592d3d" stroke-miterlimit="10" stroke-width="12px"></circle><path d="M378,580.47c1.22,3.83-3.5,6.78-7,7.37-3.54,0-5.9-2.36-7.08-5.31-.59-2.95,0-5.9,2.36-7.67,2.95-1.18,7.08-2.36,9.7.67A6.85,6.85,0,0,1,378,580.47Z" fill="#ffffff"></path><path d="M384.32,578.21a2.29,2.29,0,0,1-4.49.19c0-1.77.59-2.36,2.27-2.42a2.22,2.22,0,0,1,2.22,2.22Z" fill="#ffffff"></path><circle cx="615.2" cy="594.66" r="33.84" fill="#ffffff" opacity="0.2"></circle><path d="M610.12,628.11l38.54-38.54c-.21-1.37-5.91-8.1-6.29-9.44l-41.72,41.74C602,622.24,608.75,627.91,610.12,628.11Z" fill="#ffffff" opacity="0.4"></path><circle cx="615.2" cy="594.66" r="33.84" fill="none" stroke="#592d3d" stroke-miterlimit="10" stroke-width="12px"></circle><path d="M607.36,579.91c1,3.25-3,5.75-6,6.25-3,0-5-2-6-4.5-.5-2.5,0-5,2-6.5,2.5-1,6-2,8.23.57A5.85,5.85,0,0,1,607.36,579.91Z" fill="#ffffff"></path><path d="M612.7,578a1.94,1.94,0,0,1-3.8.16c0-1.5.5-2,1.92-2A1.88,1.88,0,0,1,612.7,578Z" fill="#ffffff"></path><path d="M416.74,594.66q83.68-30,164.63,0" fill="none" stroke="#592d3d" stroke-miterlimit="10" stroke-width="12px"></path><path d="M615.2,634.5A39.9,39.9,0,0,1,575.6,599c-50-17.65-101.46-17.64-153.1,0a39.81,39.81,0,0,1-50.92,33.84,38,38,0,0,0,54.51-29.91c49.22-16.86,98.28-16.88,145.93,0a38,38,0,0,0,54.51,30A40,40,0,0,1,615.2,634.5Z" opacity="0.15"></path></g></svg>